<svg xmlns="http://www.w3.org/2000/svg" viewBox="0 0 64 64">
  <defs>
    <linearGradient id="bg" x1="0%" y1="0%" x2="100%" y2="100%">
      <stop offset="0%" stop-color="#0f9d8a" />
      <stop offset="100%" stop-color="#0b5cab" />
    </linearGradient>
  </defs>
  <rect width="64" height="64" rx="16" fill="url(#bg)" />
  <path
    d="M49 18 34 28l-6-8c-.9-1.2-2.6-1.6-3.9-.8-1.4.8-2 2.5-1.4 3.9l4 9-11 7.3c-1.4.9-1.8 2.8-.8 4.1 1 1.4 2.8 1.7 4.2.8l11-7.2 8.9 4c1.4.6 3.1 0 3.9-1.4.8-1.3.4-3-.8-3.9l-8-6 10-15c1-1.5.5-3.5-1-4.5-1.5-1-3.5-.6-4.4.8Z"
    fill="#fff"
  />
</svg>
